<?xml version="1.0" encoding="UTF-8"?>
<svg xmlns="http://www.w3.org/2000/svg" xmlns:xlink="http://www.w3.org/1999/xlink" width="96pt" height="96pt" viewBox="0 0 96 96" version="1.1">
<g id="surface1522039">
<path style=" stroke:none;fill-rule:nonzero;fill:rgb(40%,40%,40%);fill-opacity:1;" d="M 82.5625 53.421875 C 79.210938 53.4375 76.308594 54.242188 73.871094 55.445312 C 72.980469 53.667969 72.078125 52.105469 71.929688 50.941406 C 71.753906 49.585938 71.546875 48.773438 71.761719 47.15625 C 71.972656 45.539062 72.90625 43.253906 72.894531 43.078125 C 72.882812 42.90625 72.6875 42.085938 70.753906 42.070312 C 68.816406 42.058594 67.164062 42.445312 66.96875 42.957031 C 66.773438 43.46875 66.398438 44.617188 66.167969 45.816406 C 65.828125 47.566406 62.308594 53.824219 60.308594 57.097656 C 59.652344 55.820312 59.097656 54.691406 58.980469 53.804688 C 58.804688 52.449219 58.601562 51.636719 58.8125 50.019531 C 59.023438 48.402344 59.960938 46.117188 59.949219 45.945312 C 59.9375 45.773438 59.738281 44.949219 57.804688 44.9375 C 55.867188 44.925781 54.214844 45.308594 54.019531 45.820312 C 53.824219 46.332031 53.617188 47.523438 53.21875 48.679688 C 52.824219 49.835938 48.140625 60.269531 46.914062 62.972656 C 46.292969 64.347656 45.746094 65.457031 45.363281 66.210938 L 45.359375 66.207031 C 45.359375 66.207031 45.335938 66.261719 45.296875 66.34375 C 44.96875 66.988281 44.773438 67.34375 44.773438 67.34375 C 44.773438 67.34375 44.777344 67.347656 44.777344 67.355469 C 44.515625 67.828125 44.234375 68.269531 44.097656 68.269531 C 44 68.269531 43.804688 67.011719 44.140625 65.285156 C 44.835938 61.664062 46.511719 56.019531 46.492188 55.828125 C 46.484375 55.726562 46.804688 54.742188 45.398438 54.230469 C 44.035156 53.730469 43.546875 54.5625 43.425781 54.566406 C 43.304688 54.570312 43.210938 54.863281 43.210938 54.863281 C 43.210938 54.863281 44.730469 48.515625 40.3125 48.515625 C 37.546875 48.515625 33.71875 51.539062 31.832031 54.28125 C 30.640625 54.929688 28.09375 56.320312 25.390625 57.804688 C 24.351562 58.375 23.296875 58.957031 22.289062 59.511719 C 22.21875 59.4375 22.152344 59.359375 22.078125 59.285156 C 16.71875 53.5625 6.808594 49.519531 7.230469 41.832031 C 7.382812 39.035156 8.355469 31.675781 26.273438 22.746094 C 40.949219 15.4375 52.699219 17.449219 54.726562 21.90625 C 57.628906 28.28125 48.449219 40.125 33.207031 41.832031 C 27.398438 42.484375 24.34375 40.230469 23.585938 39.394531 C 22.785156 38.511719 22.664062 38.472656 22.363281 38.640625 C 21.875 38.90625 22.183594 39.6875 22.363281 40.152344 C 22.820312 41.335938 24.6875 43.4375 27.871094 44.480469 C 30.671875 45.398438 37.492188 45.902344 45.734375 42.714844 C 54.972656 39.144531 62.183594 29.207031 60.0625 20.898438 C 57.90625 12.453125 43.902344 9.675781 30.644531 14.382812 C 22.765625 17.171875 14.21875 21.570312 8.078125 27.316406 C 0.78125 34.144531 -0.386719 40.09375 0.09375 42.574219 C 1.796875 51.398438 13.960938 57.148438 18.832031 61.40625 C 18.59375 61.539062 18.367188 61.664062 18.160156 61.78125 C 15.714844 62.988281 6.445312 67.839844 4.125 72.96875 C 1.492188 78.785156 4.542969 82.957031 6.558594 83.519531 C 12.816406 85.261719 19.234375 82.128906 22.683594 76.984375 C 26.132812 71.839844 25.710938 65.140625 24.128906 62.085938 C 24.109375 62.046875 24.089844 62.007812 24.066406 61.972656 C 24.699219 61.601562 25.339844 61.21875 25.980469 60.84375 C 27.222656 60.117188 28.445312 59.433594 29.5 58.855469 C 28.90625 60.480469 28.472656 62.425781 28.246094 65.234375 C 27.992188 68.53125 29.34375 72.800781 31.117188 74.480469 C 31.894531 75.21875 32.832031 75.234375 33.429688 75.234375 C 35.488281 75.234375 36.429688 73.523438 37.464844 71.496094 C 38.730469 69.007812 39.859375 66.117188 39.859375 66.117188 C 39.859375 66.117188 38.449219 73.9375 42.300781 73.9375 C 43.703125 73.9375 45.117188 72.117188 45.742188 71.1875 C 45.742188 71.199219 45.746094 71.203125 45.746094 71.203125 C 45.746094 71.203125 45.785156 71.144531 45.855469 71.023438 C 46 70.800781 46.085938 70.660156 46.085938 70.660156 C 46.085938 70.660156 46.089844 70.644531 46.09375 70.621094 C 46.65625 69.640625 47.90625 67.40625 49.785156 63.722656 C 52.207031 58.964844 54.53125 53.003906 54.53125 53.003906 C 54.53125 53.003906 54.746094 54.460938 55.457031 56.871094 C 55.871094 58.289062 56.761719 59.855469 57.457031 61.359375 C 56.890625 62.140625 56.546875 62.589844 56.546875 62.589844 C 56.546875 62.589844 56.550781 62.597656 56.554688 62.613281 C 56.109375 63.207031 55.605469 63.851562 55.074219 64.480469 C 53.164062 66.761719 50.882812 69.359375 50.578125 70.113281 C 50.21875 70.996094 50.304688 71.648438 51 72.171875 C 51.507812 72.554688 52.410156 72.613281 53.355469 72.550781 C 55.074219 72.4375 56.285156 72.007812 56.882812 71.753906 C 57.816406 71.425781 58.898438 70.902344 59.914062 70.15625 C 61.792969 68.777344 62.925781 66.800781 62.816406 64.1875 C 62.757812 62.746094 62.296875 61.320312 61.714844 59.972656 C 61.886719 59.726562 62.054688 59.480469 62.226562 59.226562 C 65.1875 54.902344 67.484375 50.148438 67.484375 50.148438 C 67.484375 50.148438 67.699219 51.605469 68.40625 54.015625 C 68.769531 55.234375 69.472656 56.566406 70.113281 57.871094 C 67.328125 60.132812 65.605469 62.761719 65.003906 64.484375 C 63.894531 67.671875 64.765625 69.117188 66.390625 69.445312 C 67.128906 69.59375 68.171875 69.257812 68.953125 68.925781 C 69.929688 68.601562 71.097656 68.0625 72.191406 67.261719 C 74.066406 65.878906 75.871094 63.949219 75.765625 61.332031 C 75.714844 60.140625 75.390625 58.960938 74.953125 57.824219 C 77.3125 56.839844 80.363281 56.296875 84.253906 56.746094 C 92.597656 57.722656 94.230469 62.933594 93.921875 65.113281 C 93.609375 67.292969 91.855469 68.492188 91.273438 68.851562 C 90.6875 69.210938 90.507812 69.339844 90.554688 69.609375 C 90.628906 70 90.894531 69.984375 91.394531 69.898438 C 92.085938 69.785156 95.777344 68.128906 95.9375 64.101562 C 96.132812 58.984375 91.234375 53.371094 82.5625 53.421875 Z M 18.253906 75.101562 C 15.488281 78.117188 11.628906 79.257812 9.972656 78.296875 C 8.183594 77.261719 8.890625 72.820312 12.285156 69.621094 C 14.351562 67.671875 17.019531 65.875 18.792969 64.769531 C 19.195312 64.523438 19.789062 64.167969 20.507812 63.738281 C 20.628906 63.671875 20.695312 63.636719 20.695312 63.636719 L 20.691406 63.632812 C 20.832031 63.546875 20.972656 63.464844 21.121094 63.375 C 22.347656 67.929688 21.152344 71.9375 18.253906 75.101562 Z M 38.382812 61.410156 C 37.421875 63.761719 35.40625 69.765625 34.179688 69.441406 C 33.128906 69.164062 32.488281 64.601562 33.96875 60.109375 C 34.714844 57.847656 36.308594 55.144531 37.246094 54.097656 C 38.757812 52.40625 40.414062 51.855469 40.820312 52.539062 C 41.339844 53.414062 38.988281 59.945312 38.382812 61.410156 Z M 55.019531 69.351562 C 54.613281 69.5625 54.234375 69.699219 54.0625 69.597656 C 53.9375 69.519531 54.230469 69.238281 54.230469 69.238281 C 54.230469 69.238281 56.3125 67 57.132812 65.984375 C 57.609375 65.390625 58.160156 64.6875 58.765625 63.898438 C 58.769531 63.980469 58.773438 64.054688 58.773438 64.132812 C 58.769531 66.8125 56.175781 68.625 55.019531 69.351562 Z M 67.835938 66.429688 C 67.53125 66.210938 67.585938 65.511719 68.585938 63.332031 C 68.976562 62.476562 69.871094 61.035156 71.433594 59.65625 C 71.613281 60.222656 71.722656 60.765625 71.71875 61.273438 C 71.699219 64.648438 69.292969 65.90625 67.835938 66.429688 Z M 67.835938 66.429688 "/>
</g>
</svg>
